<svg width="466" height="134" viewBox="0 0 466 134" fill="none" xmlns="http://www.w3.org/2000/svg">
<path fill-rule="evenodd" clip-rule="evenodd" d="M125.766 126.133L125.765 126.139C125.717 126.327 124.527 130.981 120.058 130.979C116.133 130.978 114.272 127.288 114.272 127.288C113.986 127.305 113.71 127.256 113.456 127.155C112.304 126.698 111.752 125.273 112.149 124.077L111.516 123.554C109.065 121.534 116.01 112.291 118.465 114.382C118.478 114.393 119.052 114.892 119.052 114.892C119.933 114.313 120.807 114 121.517 114C122.021 114 122.442 114.158 122.726 114.49C123.364 115.237 123.135 116.662 122.264 118.106C122.451 118.298 122.607 118.559 122.717 118.818C122.994 119.049 123.173 119.4 123.262 119.885C123.318 120.185 123.348 120.555 123.376 120.881V120.881V120.881C123.397 121.142 123.417 121.376 123.445 121.522C123.503 121.551 123.541 121.569 123.569 121.582C123.594 121.595 123.611 121.603 123.628 121.611C123.659 121.627 123.69 121.644 123.778 121.691C123.794 121.7 123.811 121.709 123.83 121.719C124.091 121.86 124.408 122.032 124.759 122.397C125.384 122.567 125.622 123.284 125.257 123.774C125.247 123.787 125.203 123.844 125.157 123.9C125.159 123.905 125.163 123.914 125.169 123.927C125.204 124.001 125.301 124.206 125.374 124.568C125.633 124.634 125.839 124.806 125.947 125.056C126.134 125.545 125.766 126.133 125.766 126.133ZM123.966 129.76V129.961H124.037V129.76H124.11V129.697H123.894V129.76H123.966ZM124.134 129.961V129.697H124.235L124.28 129.849L124.323 129.697H124.425V129.961H124.36V129.77L124.307 129.961H124.252L124.199 129.77V129.961H124.134Z" fill="#5B453E"/>
<path fill-rule="evenodd" clip-rule="evenodd" d="M125.372 125.85C125.316 126.076 125.039 127.181 123.934 128.113C122.398 129.408 120.381 129.277 119.619 128.551C119.212 128.143 119.036 127.558 119.036 127.558C119.036 127.558 118.99 127.888 118.982 128.017C118.675 127.456 118.701 126.772 118.701 126.772C118.701 126.772 118.537 127.1 118.462 127.283C118.236 126.666 118.353 126.029 118.353 126.029L118.174 126.315C118.174 126.315 118.09 125.616 118.296 125.034C118.516 124.413 118.942 123.961 119.027 123.905C118.703 123.794 118.33 123.478 118.33 123.477C118.33 123.477 118.478 123.488 118.581 123.462C118.581 123.462 117.927 122.959 117.812 122.19C117.907 122.316 118.106 122.458 118.106 122.458C118.041 122.256 118.002 121.808 118.063 121.367L118.063 121.367C118.186 120.524 118.833 119.976 119.566 119.983C119.706 119.984 119.838 119.991 119.964 119.997C120.538 120.027 120.987 120.05 121.523 119.519C121.531 119.511 121.538 119.504 121.546 119.496C121.674 119.369 121.783 119.261 121.966 119.217C121.97 119.216 121.975 119.215 121.98 119.213C122.007 119.205 122.056 119.189 122.142 119.189C122.248 119.189 122.349 119.215 122.442 119.274C122.797 119.501 122.873 120.092 122.912 120.525C122.999 121.521 123.01 121.79 123.15 121.929C123.236 122.015 123.371 122.052 123.602 122.178C123.63 122.193 123.658 122.208 123.686 122.223C123.954 122.367 124.251 122.526 124.585 122.91C124.587 122.912 124.59 122.914 124.593 122.914C124.905 122.922 125.065 123.185 124.921 123.377C123.875 124.718 122.414 125.36 120.785 125.414C120.733 125.415 120.631 125.418 120.587 125.419C120.574 125.419 120.566 125.419 120.566 125.419C119.908 125.441 119.694 126.354 120.106 126.903C120.367 127.25 120.869 127.364 121.282 127.366L121.288 127.364C123.069 127.402 124.857 126.05 125.166 125.305L125.188 125.252C125.188 125.252 125.171 125.272 125.151 125.29C125.15 125.291 125.146 125.295 125.137 125.303C124.969 125.469 123.313 127.092 121.274 127.031C121.274 127.031 121.043 127.026 120.826 126.971C120.54 126.9 120.323 126.765 120.24 126.459C120.215 126.403 120.201 126.209 120.234 126.078C120.323 125.757 120.473 125.754 120.705 125.75C120.74 125.749 120.776 125.749 120.814 125.747H120.815C121.869 125.709 122.72 125.425 123.358 125.1C124.039 124.753 124.557 124.306 124.744 124.081C124.986 124.519 124.985 125.081 124.985 125.081C124.985 125.081 125.08 125.045 125.205 125.045C125.601 125.045 125.682 125.425 125.383 125.81C125.381 125.814 125.378 125.828 125.372 125.85ZM115.544 123.788C115.544 123.788 115.495 124.007 115.397 124.273C115.303 123.42 114.97 123.24 114.97 123.24C114.777 123.144 114.563 123.091 114.338 123.091C113.472 123.091 112.77 123.884 112.77 124.863C112.77 125.842 113.472 126.635 114.338 126.635C115.314 126.635 116.055 125.638 115.883 124.549C115.883 124.549 115.783 124.798 115.69 124.93C115.713 124.54 115.656 124.155 115.544 123.788Z" fill="#F2D8B4"/>
<path d="M112.269 123.433C112.263 123.431 111.673 122.983 111.589 122.835C111.093 121.967 111.956 120.183 112.57 119.17C114.088 116.665 116.615 114.688 117.763 114.97L118.941 115.601C118.484 115.88 118.041 116.223 117.776 116.451L117.525 116.669C117.525 116.669 116.793 117.18 116.429 117.502C114.969 118.794 113.531 120.794 112.998 122.724C112.998 122.724 112.56 122.95 112.269 123.433Z" fill="#207EAC"/>
<path d="M118.062 114.973C116.892 114.666 114.316 116.811 112.769 119.529C112.768 119.53 112.768 119.53 112.768 119.531L112.774 119.532L114.007 120.603C115.361 118.232 117.062 117.009 117.11 116.973L116.915 115.521L117.281 115.328L118.016 115.59L117.96 115.319L118.062 114.973Z" fill="#4FB1D3"/>
<path d="M119.824 115.328L118.485 116.287L118.391 116.361L117.204 115.374L117.177 115.187L117.59 114.986C117.611 114.992 118.385 115.248 118.418 115.259L118.432 114.735L118.47 114.616L118.832 114.475C118.833 114.475 119.822 115.327 119.824 115.328Z" fill="#FACD55"/>
<path d="M121.297 114.475C120.541 114.475 119.692 114.923 119.04 115.364C118.949 115.424 118.858 115.488 118.769 115.553L118.428 115.231L118.552 115.715C118.505 115.752 118.46 115.788 118.415 115.824L117.711 115.581L118.177 116.021C118.07 116.112 117.975 116.197 117.897 116.271L116.779 115.231L116.838 115.697L117.65 116.503C117.65 116.503 116.932 117.049 116.574 117.393C115.141 118.771 113.73 120.905 113.207 122.964L113.237 122.945C113.241 122.943 113.245 122.941 113.249 122.938C113.263 122.929 113.278 122.921 113.293 122.913C113.302 122.908 113.311 122.902 113.321 122.897C113.335 122.889 113.35 122.881 113.365 122.874C113.374 122.87 113.383 122.865 113.392 122.861C113.408 122.853 113.424 122.846 113.441 122.839C113.448 122.836 113.456 122.833 113.463 122.83C113.487 122.82 113.51 122.811 113.534 122.803C113.89 122.684 114.373 122.607 114.94 122.878C115.225 122.069 115.564 121.246 116.1 120.455C116.534 119.814 116.952 119.242 117.453 118.927C118.402 117.922 120.959 116.857 121.778 117.78C121.972 117.423 122.14 117.085 122.279 116.661C122.621 115.642 122.627 114.475 121.297 114.475Z" fill="#131B23"/>
<path d="M118.503 115.415L118.225 114.943L118.062 115.178L118.159 115.363L118.503 115.415Z" fill="#131B23"/>
<path fill-rule="evenodd" clip-rule="evenodd" d="M121.07 114.475C120.655 114.521 120.222 114.683 119.818 114.887C118.454 115.589 117.503 116.625 117.388 116.749C117.383 116.755 117.38 116.758 117.378 116.76C117.265 116.879 117.152 117.003 117.04 117.13C116.707 117.508 116.381 117.918 116.076 118.339C115.537 119.084 115.312 119.431 114.972 120.139C114.972 120.139 114.974 120.136 114.979 120.13C115.102 119.968 116.851 117.669 117.299 117.181C118.151 116.254 119.545 115.22 119.56 115.211C120.155 114.811 120.658 114.576 121.07 114.475ZM124.443 123.811C124.678 124.245 124.676 124.802 124.676 124.802C124.68 124.962 124.675 125.05 124.667 125.174C124.191 125.615 122.772 126.787 121.081 126.735C121.081 126.735 120.858 126.729 120.647 126.676C120.372 126.605 120.162 126.473 120.08 126.173L120.079 126.168L120.079 126.168C120.078 126.164 120.067 126.137 120.06 126.079L120.06 126.077L120.06 126.075C120.058 126.06 120.057 126.045 120.056 126.029L120.056 126.023L120.056 126.021C120.055 125.996 120.054 125.966 120.055 125.933C120.056 125.921 120.056 125.909 120.057 125.897L120.057 125.898L120.057 125.894C120.06 125.858 120.065 125.822 120.073 125.791C120.16 125.472 120.305 125.469 120.53 125.465C120.563 125.464 120.599 125.464 120.636 125.462H120.636C121.658 125.425 122.483 125.143 123.101 124.821C123.76 124.477 124.262 124.035 124.443 123.811Z" fill="#FFFFFE"/>
<path fill-rule="evenodd" clip-rule="evenodd" d="M122.698 121.01C122.772 121.855 122.789 122.055 122.946 122.174C122.95 122.179 122.955 122.183 122.959 122.186C122.854 122.219 122.76 122.249 122.677 122.278C122.523 122.055 122.309 121.846 121.87 121.88C121.288 121.934 120.826 122.49 120.91 123.042C120.633 123.191 120.376 123.345 120.136 123.503C119.741 123.548 119.26 123.694 118.835 124.074C118.515 123.966 118.147 123.657 118.146 123.657C118.146 123.657 118.293 123.667 118.395 123.642C118.395 123.642 118.388 123.637 118.375 123.627L118.374 123.625L118.373 123.624C118.364 123.617 118.355 123.61 118.346 123.603C118.194 123.472 117.729 123.026 117.634 122.4C117.728 122.523 117.925 122.662 117.925 122.662C117.922 122.654 117.92 122.647 117.918 122.639C117.918 122.638 117.918 122.637 117.918 122.635C117.918 122.635 117.891 122.552 117.872 122.392C117.867 122.347 117.862 122.299 117.859 122.248C117.857 122.214 117.855 122.178 117.854 122.14C117.878 121.824 117.954 121.558 118.142 121.306C118.416 120.939 118.793 120.79 119.227 120.798C119.346 120.799 119.467 120.812 119.593 120.826L119.593 120.826C119.714 120.839 119.839 120.853 119.973 120.858C120.346 120.87 120.705 120.804 121.083 120.623C121.457 120.435 121.668 120.217 121.889 119.879C121.967 119.788 122.104 119.655 122.226 119.66C122.306 119.66 122.362 119.703 122.402 119.739C122.594 120.015 122.647 120.443 122.677 120.776L122.698 121.01ZM121.561 122.64C121.651 122.334 122.058 122.186 122.304 122.371C122.194 122.439 122.16 122.635 122.227 122.749C122.088 122.746 121.946 122.804 121.845 122.907C121.855 122.761 121.704 122.648 121.561 122.64ZM123.046 128.622C123.266 128.499 123.481 128.353 123.687 128.181C124.78 127.272 125.054 126.193 125.109 125.973L125.109 125.973C125.115 125.951 125.118 125.937 125.12 125.934C124.614 126.627 123.952 127.177 123.244 127.559C122.662 127.872 122.226 127.981 122.226 127.981C122.226 127.981 122.538 128.417 123.046 128.622ZM119.725 126.108C119.802 125.803 120.021 125.561 120.356 125.55L120.377 125.55L120.573 125.545C122.183 125.492 123.628 124.866 124.663 123.557C124.805 123.37 124.646 123.112 124.338 123.105H124.334C124.307 123.135 124.292 123.177 124.271 123.233C124.252 123.286 124.228 123.351 124.186 123.429C123.871 124.008 123.436 124.273 122.856 124.58C121.912 125.078 121.209 125.189 120.702 125.269C120.253 125.34 119.957 125.387 119.783 125.657C119.675 125.826 119.673 126.015 119.725 126.108ZM123.155 125.893C123.151 125.893 123.146 125.894 123.139 125.896C123.116 125.902 123.065 125.919 122.991 125.945C122.502 126.114 121.006 126.631 120.012 126.301C120.007 126.367 120.008 126.506 120.034 126.567L120.034 126.567C120.207 126.604 120.426 126.627 120.68 126.627C122.184 126.627 123.269 125.903 123.155 125.893ZM114.74 125.745L114.739 125.746C114.032 125.801 113.378 124.844 113.764 124.316C113.817 124.274 113.862 124.25 113.88 124.24C113.883 124.239 113.886 124.237 113.887 124.237C113.897 124.231 113.908 124.226 113.919 124.221C113.926 124.218 113.934 124.214 113.942 124.21C113.95 124.207 113.959 124.204 113.969 124.201C114 124.192 114.007 124.189 114.014 124.187C114.021 124.185 114.028 124.183 114.059 124.176H114.059C114.402 124.099 114.645 124.26 114.75 124.418C114.799 124.491 114.809 124.546 114.817 124.586C114.819 124.599 114.821 124.61 114.824 124.62L114.824 124.62C114.742 124.499 114.636 124.472 114.636 124.472C114.547 124.434 114.375 124.492 114.363 124.697C114.358 124.776 114.38 124.865 114.444 124.942L114.445 124.943L114.452 124.951L114.458 124.959C114.51 125.016 114.573 125.058 114.632 125.097C114.734 125.166 114.827 125.229 114.848 125.355C114.87 125.495 114.832 125.64 114.74 125.745Z" fill="#E2B986"/>
<path fill-rule="evenodd" clip-rule="evenodd" d="M121.73 117.686C121.162 117.211 119.501 117.345 117.839 118.517C117.077 119.053 116.519 119.639 116.089 120.249C116.089 120.249 116.753 118.876 118.212 117.969C118.111 117.951 117.871 117.982 117.803 117.991C117.798 117.992 117.794 117.992 117.791 117.992C118.056 117.745 118.549 117.579 118.889 117.504C118.79 117.435 118.552 117.418 118.435 117.414C118.403 117.413 118.4 117.413 118.368 117.415C118.365 117.415 118.362 117.415 118.359 117.415C118.679 117.221 119.273 117.106 119.812 117.21C119.744 117.112 119.591 117.04 119.483 117.006C119.473 117.003 119.431 116.991 119.431 116.991C119.431 116.991 119.467 116.982 119.472 116.981C119.797 116.913 120.176 116.986 120.477 117.117C120.443 117.031 120.359 116.931 120.297 116.868C120.29 116.861 120.253 116.832 120.253 116.832C120.567 116.903 120.868 117.052 121.095 117.221C121.064 117.156 120.988 117.047 120.935 116.988C121.235 117.081 121.572 117.314 121.717 117.648C121.72 117.655 121.728 117.68 121.73 117.685L121.731 117.686L121.73 117.686ZM120.4 122.139C120.432 122.19 120.441 122.229 120.428 122.245C120.404 122.275 120.326 122.242 120.21 122.192L120.171 122.175C119.818 122.032 119.558 122.01 119.098 122.2L119.061 122.215C118.964 122.255 118.895 122.284 118.86 122.279C118.795 122.268 118.858 122.14 118.999 122.015C119.282 121.769 119.672 121.693 120.005 121.828C120.15 121.886 120.314 122.002 120.4 122.139ZM120.33 122.531C120.233 122.451 120.055 122.397 119.87 122.431C119.842 122.436 119.814 122.444 119.788 122.453L119.788 122.453L119.788 122.453L119.788 122.453C119.779 122.455 119.77 122.458 119.761 122.461C119.748 122.464 119.735 122.469 119.723 122.475C119.647 122.51 119.581 122.548 119.516 122.614C119.443 122.692 119.422 122.764 119.443 122.781C119.461 122.797 119.502 122.779 119.565 122.751L119.565 122.751L119.594 122.738C119.858 122.619 120.045 122.616 120.223 122.629L120.235 122.63C120.314 122.636 120.367 122.64 120.379 122.615C120.389 122.598 120.372 122.565 120.33 122.531ZM114.644 124.005L114.644 124.005C114.5 123.879 114.295 123.819 114.057 123.874L114.053 123.875C114.025 123.881 114.019 123.883 114.012 123.885L114.005 123.887C113.999 123.889 113.989 123.892 113.967 123.899C113.958 123.902 113.949 123.905 113.941 123.908C113.933 123.912 113.925 123.916 113.918 123.919L113.918 123.919L113.918 123.919L113.918 123.919C113.907 123.924 113.896 123.929 113.886 123.935L113.879 123.939C113.849 123.956 113.738 124.016 113.647 124.138C113.598 124.204 113.56 124.278 113.533 124.353C113.483 124.493 113.464 124.646 113.47 124.793C113.477 124.994 113.526 125.114 113.544 125.159L113.55 125.172C113.597 125.281 113.487 125.304 113.386 125.186L113.386 125.186C113.306 125.094 113.255 124.953 113.229 124.828V124.828C113.215 124.754 113.205 124.671 113.205 124.581C113.205 124.477 113.218 124.365 113.25 124.248L113.25 124.248L113.25 124.248C113.337 123.942 113.532 123.711 113.829 123.585C113.848 123.577 113.869 123.571 113.889 123.565L113.889 123.565C113.898 123.563 113.906 123.56 113.914 123.558L113.914 123.558C113.964 123.542 114.143 123.502 114.325 123.533C114.431 123.551 114.527 123.589 114.609 123.639C114.692 123.689 114.761 123.751 114.814 123.817L114.814 123.817C114.9 123.924 114.965 124.074 114.953 124.207L114.953 124.208C114.949 124.263 114.926 124.343 114.88 124.364C114.863 124.371 114.846 124.367 114.834 124.354C114.82 124.34 114.817 124.319 114.812 124.292C114.804 124.251 114.794 124.195 114.745 124.121C114.72 124.083 114.687 124.043 114.644 124.005L114.644 124.005ZM114.593 124.502C114.56 124.474 114.544 124.45 114.535 124.413C114.522 124.345 114.529 124.306 114.582 124.265C114.594 124.256 114.605 124.249 114.614 124.243C114.639 124.226 114.656 124.214 114.656 124.201C114.658 124.164 114.521 124.127 114.425 124.23C114.346 124.322 114.321 124.514 114.448 124.663C114.501 124.726 114.566 124.771 114.627 124.813C114.728 124.883 114.821 124.947 114.843 125.076C114.847 125.106 114.85 125.139 114.848 125.171C114.849 125.204 114.839 125.251 114.837 125.263L114.837 125.265C114.794 125.467 114.618 125.659 114.329 125.61L114.316 125.608C114.27 125.6 114.24 125.595 114.231 125.61C114.208 125.644 114.332 125.798 114.56 125.793C114.782 125.788 115.002 125.607 115.073 125.335L115.074 125.333C115.077 125.32 115.095 125.249 115.097 125.185C115.101 125.134 115.097 125.081 115.088 125.026C115.045 124.765 114.856 124.659 114.714 124.579C114.665 124.552 114.623 124.528 114.593 124.502ZM122.149 122.219C122.168 122.088 122.255 121.994 122.343 122.009C122.43 122.024 122.486 122.142 122.468 122.273C122.449 122.404 122.362 122.498 122.274 122.483C122.187 122.468 122.131 122.35 122.149 122.219ZM121.377 122.392C121.328 122.487 121.387 122.624 121.508 122.695C121.629 122.767 121.766 122.748 121.814 122.652C121.863 122.557 121.804 122.421 121.683 122.349C121.562 122.277 121.425 122.296 121.377 122.392Z" fill="#916D53"/>
<path d="M121.59 121.467C121.588 121.337 121.602 121.123 121.687 121.083C121.687 121.083 121.687 121.083 121.687 121.083C121.831 121.01 122.022 121.545 122.031 122.019C121.917 121.937 121.783 121.902 121.645 121.919C121.611 121.766 121.594 121.622 121.59 121.467Z" fill="#5B453E"/>
<path d="M147.43 76V65.654H149.516V76H147.43ZM153.486 76H151.512V68.37H153.444V69.434C153.65 69.0513 153.967 68.7433 154.396 68.51C154.826 68.2767 155.306 68.16 155.838 68.16C156.669 68.16 157.374 68.4353 157.952 68.986C158.531 69.5367 158.82 70.3207 158.82 71.338V76H156.846V71.87C156.846 71.2727 156.702 70.8107 156.412 70.484C156.123 70.148 155.731 69.98 155.236 69.98C154.714 69.98 154.289 70.162 153.962 70.526C153.645 70.8807 153.486 71.3427 153.486 71.912V76ZM165.354 73.998L165.942 75.552C165.308 75.972 164.556 76.182 163.688 76.182C162.811 76.182 162.148 75.93 161.7 75.426C161.252 74.9127 161.028 74.1613 161.028 73.172V70.022H159.782V68.37H161.042V65.668H163.002V68.37H165.522V70.022H163.002V73.046C163.002 73.942 163.362 74.39 164.08 74.39C164.472 74.39 164.897 74.2593 165.354 73.998ZM174.176 72.01C174.176 72.2433 174.153 72.5327 174.106 72.878H168.38C168.66 73.9607 169.402 74.502 170.606 74.502C171.493 74.502 172.314 74.2453 173.07 73.732L173.854 75.118C172.883 75.818 171.773 76.168 170.522 76.168C169.187 76.168 168.161 75.7807 167.442 75.006C166.733 74.2407 166.378 73.298 166.378 72.178C166.378 71.0113 166.747 70.0547 167.484 69.308C168.221 68.552 169.178 68.174 170.354 68.174C171.465 68.174 172.379 68.5193 173.098 69.21C173.817 69.9007 174.176 70.834 174.176 72.01ZM170.354 69.812C169.859 69.812 169.435 69.9567 169.08 70.246C168.735 70.526 168.501 70.9133 168.38 71.408H172.258C172.165 70.9133 171.95 70.526 171.614 70.246C171.278 69.9567 170.858 69.812 170.354 69.812ZM181.372 69.21V68.37H183.192V75.244C183.192 76.476 182.8 77.4467 182.016 78.156C181.222 78.8747 180.205 79.234 178.964 79.234C177.648 79.234 176.481 78.8653 175.464 78.128L176.234 76.644C177.111 77.2413 178.002 77.54 178.908 77.54C179.645 77.54 180.224 77.344 180.644 76.952C181.073 76.56 181.288 76.0513 181.288 75.426V75.034C180.7 75.6873 179.916 76.014 178.936 76.014C177.816 76.014 176.901 75.6453 176.192 74.908C175.482 74.1707 175.128 73.2373 175.128 72.108C175.128 70.9787 175.501 70.0407 176.248 69.294C176.994 68.5473 177.918 68.174 179.02 68.174C179.953 68.174 180.737 68.5193 181.372 69.21ZM177.116 72.122C177.116 72.7567 177.316 73.2747 177.718 73.676C178.128 74.0867 178.632 74.292 179.23 74.292C179.827 74.292 180.331 74.0867 180.742 73.676C181.143 73.2653 181.344 72.7473 181.344 72.122C181.344 71.506 181.143 70.9973 180.742 70.596C180.331 70.1853 179.827 69.98 179.23 69.98C178.632 69.98 178.128 70.1853 177.718 70.596C177.316 70.9973 177.116 71.506 177.116 72.122ZM186.955 76H184.981V68.37H186.871V69.392C187.328 68.5707 188.028 68.16 188.971 68.16C189.279 68.16 189.587 68.216 189.895 68.328L189.727 70.218C189.391 70.1153 189.088 70.064 188.817 70.064C188.238 70.064 187.781 70.26 187.445 70.652C187.118 71.0347 186.955 71.6087 186.955 72.374V76ZM196.424 69.28V68.37H198.3V76H196.424V75.118C195.77 75.8273 194.958 76.182 193.988 76.182C192.886 76.182 191.981 75.7993 191.272 75.034C190.562 74.2687 190.208 73.3073 190.208 72.15C190.208 71.002 190.567 70.0547 191.286 69.308C192.004 68.552 192.905 68.174 193.988 68.174C194.94 68.174 195.752 68.5427 196.424 69.28ZM196.452 72.178C196.452 71.5807 196.246 71.0627 195.836 70.624C195.434 70.1947 194.926 69.98 194.31 69.98C193.684 69.98 193.171 70.1947 192.77 70.624C192.378 71.0533 192.182 71.5713 192.182 72.178C192.182 72.794 192.382 73.3167 192.784 73.746C193.185 74.1753 193.694 74.39 194.31 74.39C194.926 74.39 195.434 74.1753 195.836 73.746C196.246 73.3073 196.452 72.7847 196.452 72.178ZM205.003 73.998L205.591 75.552C204.956 75.972 204.205 76.182 203.337 76.182C202.459 76.182 201.797 75.93 201.349 75.426C200.901 74.9127 200.677 74.1613 200.677 73.172V70.022H199.431V68.37H200.691V65.668H202.651V68.37H205.171V70.022H202.651V73.046C202.651 73.942 203.01 74.39 203.729 74.39C204.121 74.39 204.545 74.2593 205.003 73.998ZM213.824 72.01C213.824 72.2433 213.801 72.5327 213.754 72.878H208.028C208.308 73.9607 209.05 74.502 210.254 74.502C211.141 74.502 211.962 74.2453 212.718 73.732L213.502 75.118C212.532 75.818 211.421 76.168 210.17 76.168C208.836 76.168 207.809 75.7807 207.09 75.006C206.381 74.2407 206.026 73.298 206.026 72.178C206.026 71.0113 206.395 70.0547 207.132 69.308C207.87 68.552 208.826 68.174 210.002 68.174C211.113 68.174 212.028 68.5193 212.746 69.21C213.465 69.9007 213.824 70.834 213.824 72.01ZM210.002 69.812C209.508 69.812 209.083 69.9567 208.728 70.246C208.383 70.526 208.15 70.9133 208.028 71.408H211.906C211.813 70.9133 211.598 70.526 211.262 70.246C210.926 69.9567 210.506 69.812 210.002 69.812ZM220.43 76V67.656H217.476V65.654H225.484V67.656H222.53V76H220.43ZM224.989 72.178C224.989 71.0487 225.372 70.1013 226.137 69.336C226.912 68.552 227.892 68.16 229.077 68.16C230.262 68.16 231.242 68.552 232.017 69.336C232.782 70.1013 233.165 71.0487 233.165 72.178C233.165 73.3167 232.782 74.2687 232.017 75.034C231.242 75.8087 230.262 76.196 229.077 76.196C227.892 76.196 226.912 75.8087 226.137 75.034C225.372 74.2687 224.989 73.3167 224.989 72.178ZM227.565 73.732C227.966 74.152 228.47 74.362 229.077 74.362C229.665 74.362 230.164 74.152 230.575 73.732C230.986 73.2933 231.191 72.7753 231.191 72.178C231.191 71.5807 230.986 71.0673 230.575 70.638C230.164 70.218 229.665 70.008 229.077 70.008C228.47 70.008 227.966 70.218 227.565 70.638C227.164 71.0487 226.963 71.562 226.963 72.178C226.963 72.7847 227.164 73.3027 227.565 73.732ZM238.937 68.174C240.011 68.174 240.907 68.5613 241.625 69.336C242.335 70.1013 242.689 71.0487 242.689 72.178C242.689 73.298 242.33 74.2453 241.611 75.02C240.893 75.7947 239.997 76.182 238.923 76.182C237.981 76.182 237.183 75.8273 236.529 75.118V79.136H234.555V68.37H236.515V69.308C237.169 68.552 237.976 68.174 238.937 68.174ZM238.587 74.376C239.213 74.376 239.721 74.166 240.113 73.746C240.505 73.326 240.701 72.808 240.701 72.192C240.701 71.576 240.505 71.058 240.113 70.638C239.721 70.218 239.213 70.008 238.587 70.008C237.971 70.008 237.467 70.218 237.075 70.638C236.683 71.058 236.487 71.576 236.487 72.192C236.487 72.808 236.683 73.326 237.075 73.746C237.467 74.166 237.971 74.376 238.587 74.376ZM251.611 76H249.861L246.431 65.654H248.699L250.785 72.612L253.137 65.654H254.453L256.847 72.612L258.905 65.654H261.173L257.757 76H256.007L253.809 69.224L251.611 76ZM261.001 72.178C261.001 71.0487 261.383 70.1013 262.149 69.336C262.923 68.552 263.903 68.16 265.089 68.16C266.274 68.16 267.254 68.552 268.029 69.336C268.794 70.1013 269.177 71.0487 269.177 72.178C269.177 73.3167 268.794 74.2687 268.029 75.034C267.254 75.8087 266.274 76.196 265.089 76.196C263.903 76.196 262.923 75.8087 262.149 75.034C261.383 74.2687 261.001 73.3167 261.001 72.178ZM263.577 73.732C263.978 74.152 264.482 74.362 265.089 74.362C265.677 74.362 266.176 74.152 266.587 73.732C266.997 73.2933 267.203 72.7753 267.203 72.178C267.203 71.5807 266.997 71.0673 266.587 70.638C266.176 70.218 265.677 70.008 265.089 70.008C264.482 70.008 263.978 70.218 263.577 70.638C263.175 71.0487 262.975 71.562 262.975 72.178C262.975 72.7847 263.175 73.3027 263.577 73.732ZM272.541 76H270.567V68.37H272.457V69.392C272.914 68.5707 273.614 68.16 274.557 68.16C274.865 68.16 275.173 68.216 275.481 68.328L275.313 70.218C274.977 70.1153 274.674 70.064 274.403 70.064C273.824 70.064 273.367 70.26 273.031 70.652C272.704 71.0347 272.541 71.6087 272.541 72.374V76ZM283.893 76H281.471L278.951 72.738L278.433 73.2V76H276.459V65.36H278.433V70.974L281.205 68.37H283.697L280.295 71.492L283.893 76ZM289.637 76V67.656H286.683V65.654H294.691V67.656H291.737V76H289.637ZM294.196 72.178C294.196 71.0487 294.579 70.1013 295.344 69.336C296.119 68.552 297.099 68.16 298.284 68.16C299.469 68.16 300.449 68.552 301.224 69.336C301.989 70.1013 302.372 71.0487 302.372 72.178C302.372 73.3167 301.989 74.2687 301.224 75.034C300.449 75.8087 299.469 76.196 298.284 76.196C297.099 76.196 296.119 75.8087 295.344 75.034C294.579 74.2687 294.196 73.3167 294.196 72.178ZM296.772 73.732C297.173 74.152 297.677 74.362 298.284 74.362C298.872 74.362 299.371 74.152 299.782 73.732C300.193 73.2933 300.398 72.7753 300.398 72.178C300.398 71.5807 300.193 71.0673 299.782 70.638C299.371 70.218 298.872 70.008 298.284 70.008C297.677 70.008 297.173 70.218 296.772 70.638C296.371 71.0487 296.17 71.562 296.17 72.178C296.17 72.7847 296.371 73.3027 296.772 73.732ZM303.356 72.178C303.356 71.0487 303.739 70.1013 304.504 69.336C305.279 68.552 306.259 68.16 307.444 68.16C308.63 68.16 309.61 68.552 310.384 69.336C311.15 70.1013 311.532 71.0487 311.532 72.178C311.532 73.3167 311.15 74.2687 310.384 75.034C309.61 75.8087 308.63 76.196 307.444 76.196C306.259 76.196 305.279 75.8087 304.504 75.034C303.739 74.2687 303.356 73.3167 303.356 72.178ZM305.932 73.732C306.334 74.152 306.838 74.362 307.444 74.362C308.032 74.362 308.532 74.152 308.942 73.732C309.353 73.2933 309.558 72.7753 309.558 72.178C309.558 71.5807 309.353 71.0673 308.942 70.638C308.532 70.218 308.032 70.008 307.444 70.008C306.838 70.008 306.334 70.218 305.932 70.638C305.531 71.0487 305.33 71.562 305.33 72.178C305.33 72.7847 305.531 73.3027 305.932 73.732ZM314.896 65.36V76H312.922V65.36H314.896ZM319.216 76.196C317.891 76.196 316.841 75.706 316.066 74.726L317.116 73.48C317.387 73.8067 317.709 74.068 318.082 74.264C318.465 74.4507 318.848 74.544 319.23 74.544C319.529 74.544 319.776 74.474 319.972 74.334C320.178 74.194 320.28 74.0167 320.28 73.802C320.28 73.5313 320.098 73.312 319.734 73.144C319.622 73.0973 319.319 72.9807 318.824 72.794C318.386 72.6353 318.059 72.5 317.844 72.388C316.967 71.968 316.528 71.31 316.528 70.414C316.528 69.7513 316.79 69.2007 317.312 68.762C317.826 68.3327 318.516 68.118 319.384 68.118C320.467 68.118 321.358 68.482 322.058 69.21L321.078 70.484C320.546 69.98 319.963 69.728 319.328 69.728C319.076 69.728 318.866 69.7933 318.698 69.924C318.54 70.0453 318.46 70.1947 318.46 70.372C318.46 70.6893 318.684 70.9227 319.132 71.072C320.131 71.4453 320.742 71.6927 320.966 71.814C321.825 72.262 322.254 72.906 322.254 73.746C322.254 74.4647 321.974 75.0527 321.414 75.51C320.873 75.9673 320.14 76.196 319.216 76.196Z" fill="#101010"/>
<g filter="url(#filter0_d_1377_10334)">
<rect x="102.5" y="6.5" width="25" height="25" rx="3.33333" fill="white"/>
<path d="M115.006 25.6732C118.687 25.6732 121.672 22.6884 121.672 19.0065C121.672 15.3246 118.687 12.3398 115.006 12.3398C111.324 12.3398 108.339 15.3246 108.339 19.0065C108.339 22.6884 111.324 25.6732 115.006 25.6732Z" fill="#2D8CFF"/>
<path fill-rule="evenodd" clip-rule="evenodd" d="M110.662 20.0557V16.9253C110.662 16.7973 110.767 16.6934 110.896 16.6934H115.461C116.172 16.6934 116.749 17.2643 116.749 17.9687V21.0991C116.749 21.2271 116.644 21.331 116.515 21.331H111.95C111.239 21.331 110.662 20.7601 110.662 20.0557ZM118.923 16.772L117.039 18.1467V19.883L118.923 21.2577C119.057 21.3595 119.213 21.391 119.213 21.113V16.9167C119.213 16.6688 119.088 16.6377 118.923 16.772Z" fill="#F2FAFF"/>
</g>
<g filter="url(#filter1_d_1377_10334)">
<rect x="335" y="25" width="20" height="20" rx="2.66667" fill="white"/>
<circle cx="345.086" cy="35.0846" r="5.32292" fill="#0F287F"/>
<path fill-rule="evenodd" clip-rule="evenodd" d="M343.185 32.041L341.284 33.1816L343.185 34.3223L341.284 35.4629L343.185 36.6035L345.086 35.4629L346.987 36.6035L348.888 35.4629L346.987 34.3223L348.888 33.1816L346.987 32.041L345.086 33.1816L343.185 32.041ZM345.086 33.1816L346.987 34.3223L345.086 35.4629L343.185 34.3223L345.086 33.1816Z" fill="#DAF8FE"/>
<path d="M343.185 37.3639L345.086 36.2233L346.987 37.3639L345.086 38.5046L343.185 37.3639Z" fill="#DAF8FE"/>
</g>
<g filter="url(#filter2_d_1377_10334)">
<rect x="342" y="103" width="20" height="20" rx="2.66667" fill="white"/>
<g clip-path="url(#clip0_1377_10334)">
<path fill-rule="evenodd" clip-rule="evenodd" d="M354.085 118.396L354.061 108.893C353.996 108.829 353.871 108.848 353.823 108.863L353.497 108.963C353.457 108.831 353.405 108.703 353.341 108.581C353.111 108.14 352.773 107.907 352.364 107.907H352.363C352.336 107.907 352.309 107.909 352.282 107.911L352.278 107.912C352.267 107.897 352.254 107.883 352.242 107.869C352.064 107.679 351.836 107.586 351.562 107.594C351.035 107.609 350.51 107.99 350.084 108.667C349.784 109.143 349.557 109.741 349.492 110.204L348.454 110.526C348.148 110.622 348.139 110.631 348.098 110.919C348.068 111.137 347.269 117.322 347.269 117.322L353.97 118.481L354.085 118.396ZM351.89 108.029C351.8 107.97 351.696 107.943 351.572 107.945C350.758 107.969 350.049 109.24 349.867 110.088L350.647 109.846L350.786 109.803C350.888 109.265 351.145 108.707 351.48 108.347C351.597 108.219 351.736 108.111 351.889 108.029H351.89ZM351.172 109.684L352.291 109.337C352.294 109.045 352.263 108.615 352.117 108.31C351.961 108.374 351.831 108.487 351.737 108.587C351.485 108.857 351.28 109.269 351.172 109.684H351.172ZM352.641 109.229L353.162 109.067C353.078 108.797 352.881 108.345 352.481 108.269C352.606 108.59 352.638 108.961 352.641 109.229Z" fill="#95BF47"/>
<path d="M355.585 109.598C355.545 109.595 354.771 109.582 354.771 109.582C354.771 109.582 354.123 108.953 354.059 108.889C354.034 108.866 354.002 108.852 353.969 108.848V118.477L356.873 117.755C356.873 117.755 355.688 109.741 355.68 109.686C355.676 109.663 355.665 109.642 355.648 109.626C355.631 109.61 355.609 109.6 355.585 109.598Z" fill="#5E8E3E"/>
<path d="M352.359 111.093L352.021 112.356C352.021 112.356 351.645 112.184 351.199 112.212C350.545 112.254 350.538 112.667 350.544 112.77C350.58 113.334 352.065 113.458 352.148 114.78C352.214 115.82 351.596 116.532 350.707 116.588C349.64 116.656 349.052 116.026 349.052 116.026L349.278 115.063C349.278 115.063 349.87 115.509 350.343 115.479C350.652 115.46 350.763 115.208 350.752 115.03C350.705 114.294 349.496 114.337 349.419 113.128C349.355 112.109 350.024 111.077 351.499 110.984C352.067 110.948 352.359 111.094 352.359 111.094" fill="white"/>
</g>
</g>
<g filter="url(#filter3_d_1377_10334)">
<rect x="67" y="62" width="20" height="20" rx="2.66667" fill="white"/>
<g clip-path="url(#clip1_1377_10334)">
<path d="M76.6197 69.9531V76.3317H71.335L76.6197 69.9531Z" fill="#03363D"/>
<path d="M76.6197 67.6641C76.6197 69.1217 75.4384 70.3025 73.9802 70.3025C72.5219 70.3025 71.335 69.1217 71.335 67.6641H76.6197Z" fill="#03363D"/>
<path d="M77.4883 76.3318C77.4883 74.8742 78.6696 73.6934 80.1278 73.6934C81.5861 73.6934 82.7674 74.8742 82.7674 76.3318H77.4883Z" fill="#03363D"/>
<path d="M77.4883 74.0426V67.6641H82.7731L77.4883 74.0426Z" fill="#03363D"/>
</g>
</g>
<g filter="url(#filter4_d_1377_10334)">
<rect x="249" y="2" width="30" height="30" rx="5.36741" fill="white"/>
<path d="M263.999 12.0933C265.501 12.0933 266.515 12.7422 267.093 13.2844L269.35 11.08C267.964 9.79111 266.159 9 263.999 9C260.87 9 258.168 10.7956 256.853 13.4089L259.439 15.4178C260.088 13.4889 261.884 12.0933 263.999 12.0933Z" fill="#EA4335"/>
<path d="M271.679 17.1785C271.679 16.5207 271.626 16.0407 271.51 15.543H263.999V18.5119H268.408C268.319 19.2496 267.839 20.3607 266.772 21.1074L269.297 23.063C270.808 21.6674 271.679 19.6141 271.679 17.1785Z" fill="#4285F4"/>
<path d="M259.448 18.5835C259.279 18.0857 259.181 17.5524 259.181 17.0013C259.181 16.4502 259.279 15.9168 259.439 15.419L256.852 13.4102C256.31 14.4946 255.999 15.7124 255.999 17.0013C255.999 18.2902 256.31 19.5079 256.852 20.5924L259.448 18.5835Z" fill="#FBBC05"/>
<path d="M263.999 24.9998C266.159 24.9998 267.972 24.2887 269.297 23.062L266.772 21.1065C266.097 21.5776 265.19 21.9065 263.999 21.9065C261.884 21.9065 260.088 20.5109 259.448 18.582L256.861 20.5909C258.177 23.2043 260.87 24.9998 263.999 24.9998Z" fill="#34A853"/>
</g>
<path d="M188.936 117.372C188.936 118.529 187.992 119.473 186.835 119.473C185.679 119.473 184.734 118.529 184.734 117.372C184.734 116.216 185.679 115.271 186.835 115.271H188.936V117.372Z" fill="#E01E5A"/>
<path d="M189.997 117.372C189.997 116.216 190.942 115.271 192.098 115.271C193.254 115.271 194.199 116.216 194.199 117.372V122.633C194.199 123.789 193.254 124.734 192.098 124.734C190.942 124.734 189.997 123.789 189.997 122.633V117.372Z" fill="#E01E5A"/>
<path d="M192.098 108.936C190.942 108.936 189.997 107.992 189.997 106.835C189.997 105.679 190.942 104.734 192.098 104.734C193.254 104.734 194.199 105.679 194.199 106.835V108.936H192.098Z" fill="#36C5F0"/>
<path d="M192.096 109.996C193.252 109.996 194.197 110.941 194.197 112.097C194.197 113.253 193.252 114.198 192.096 114.198H186.835C185.679 114.198 184.734 113.253 184.734 112.097C184.734 110.941 185.679 109.996 186.835 109.996H192.096Z" fill="#36C5F0"/>
<path d="M200.534 112.097C200.534 110.941 201.479 109.996 202.635 109.996C203.792 109.996 204.736 110.941 204.736 112.097C204.736 113.253 203.792 114.198 202.635 114.198H200.534V112.097Z" fill="#2EB67D"/>
<path d="M199.473 112.096C199.473 113.252 198.529 114.197 197.372 114.197C196.216 114.197 195.271 113.252 195.271 112.096V106.835C195.271 105.679 196.216 104.734 197.372 104.734C198.529 104.734 199.473 105.679 199.473 106.835V112.096Z" fill="#2EB67D"/>
<path d="M197.372 120.535C198.529 120.535 199.473 121.48 199.473 122.636C199.473 123.792 198.529 124.737 197.372 124.737C196.216 124.737 195.271 123.792 195.271 122.636V120.535H197.372Z" fill="#ECB22E"/>
<path d="M197.372 119.473C196.216 119.473 195.271 118.529 195.271 117.372C195.271 116.216 196.216 115.271 197.372 115.271H202.633C203.789 115.271 204.734 116.216 204.734 117.372C204.734 118.529 203.789 119.473 202.633 119.473H197.372Z" fill="#ECB22E"/>
<path d="M280.734 114.734C285.705 114.734 289.734 110.705 289.734 105.734C289.734 100.764 285.705 96.7344 280.734 96.7344C275.764 96.7344 271.734 100.764 271.734 105.734C271.734 110.705 275.764 114.734 280.734 114.734Z" fill="url(#paint0_linear_1377_10334)"/>
<path fill-rule="evenodd" clip-rule="evenodd" d="M275.338 102.138C275.338 101.143 276.141 100.336 277.139 100.336H284.336C285.331 100.336 286.138 101.139 286.138 102.138V109.334C286.138 110.329 285.335 111.136 284.336 111.136H277.139C276.144 111.136 275.338 110.333 275.338 109.334V102.138ZM281.439 102.389V105.818C281.439 106.176 281.729 106.466 282.087 106.466H284.085C284.443 106.466 284.733 106.176 284.733 105.818V102.389C284.733 102.031 284.443 101.741 284.085 101.741H282.087C281.729 101.741 281.439 102.031 281.439 102.389ZM276.743 108.518V102.388C276.743 102.031 277.033 101.741 277.391 101.741H279.389C279.747 101.741 280.037 102.031 280.037 102.388V108.518C280.037 108.876 279.747 109.166 279.389 109.166H277.391C277.033 109.166 276.743 108.876 276.743 108.518Z" fill="#F2FAFF"/>
<path fill-rule="evenodd" clip-rule="evenodd" d="M198.759 26.5307C198.625 25.8122 198.2 25.4582 197.815 25.319C197.4 25.1684 196.559 25.0124 195.502 24.8873C194.651 24.7868 193.652 24.7948 193.048 24.8135C192.975 24.3151 192.627 23.8598 192.238 23.7022C191.2 23.2827 189.596 23.384 189.184 23.4999C188.857 23.5917 188.495 23.7799 188.293 24.0699C188.158 24.2635 188.071 24.5117 188.07 24.8583C188.07 25.0546 188.076 25.5167 188.081 25.9274C188.085 26.2704 188.089 26.5833 188.09 26.6798L188.09 26.6799L188.091 26.7102C188.091 27.077 187.795 27.3754 187.428 27.3759H185.745C185.386 27.3759 185.112 27.4365 184.902 27.532C184.692 27.6277 184.544 27.7567 184.431 27.9093C184.206 28.2122 184.167 28.5861 184.168 28.9677C184.168 28.9677 184.171 29.2794 184.246 29.8829C184.308 30.3498 184.813 33.6118 185.292 34.6038C185.477 34.9898 185.601 35.1506 185.966 35.3207C186.779 35.6702 188.636 36.059 189.506 36.1703C189.65 36.1888 189.785 36.2107 189.912 36.2312C190.55 36.3344 190.974 36.4032 191.245 35.8324C191.246 35.8307 191.31 35.6622 191.398 35.415C191.68 34.5567 191.72 33.795 191.72 33.2439C191.72 33.1879 191.802 33.1853 191.802 33.2439C191.802 33.2656 191.801 33.2903 191.801 33.3177C191.797 33.7831 191.785 35.0305 192.764 35.3794C193.172 35.525 194.021 35.6548 194.883 35.7563C195.662 35.8462 196.228 36.1542 196.228 38.162C196.228 39.3836 195.972 39.551 194.636 39.551L194.537 39.5511C193.528 39.5519 193.141 39.5522 193.141 38.7154C193.141 38.0767 193.716 38.0836 194.205 38.0894H194.205C194.25 38.0899 194.295 38.0904 194.338 38.0904C194.482 38.0904 194.469 38.0231 194.44 37.8658C194.423 37.7731 194.401 37.6493 194.401 37.4897C194.401 37.3081 194.449 37.1589 194.485 37.0469C194.534 36.8946 194.561 36.8109 194.415 36.8072C192.653 36.7586 191.616 36.8052 191.616 39.0183C191.616 41.0274 192.382 41.4005 194.883 41.4005C196.844 41.4005 197.535 41.336 198.345 38.8132C198.505 38.3151 198.893 36.7953 199.127 34.2434C199.276 32.6298 198.987 27.7598 198.759 26.5307ZM195.34 31.9112C195.098 31.9027 194.865 31.9181 194.647 31.9532C194.708 31.4572 194.912 30.8487 195.634 30.8741C196.434 30.9018 196.546 31.6605 196.549 32.1744C196.212 32.0235 195.794 31.9273 195.34 31.9112ZM185.666 26.8854H185.665C185.252 26.8854 184.906 26.9561 184.622 27.0851C184.609 27.0908 184.518 27.136 184.45 27.1695L184.449 27.1704C184.45 27.1634 184.454 27.1565 184.461 27.1513L187.73 23.8959C187.737 23.8895 187.743 23.8864 187.749 23.8853L187.692 23.9938C187.571 24.2354 187.502 24.5237 187.502 24.8545V24.8592C187.502 25.2467 187.521 26.602 187.523 26.7044L187.523 26.7105C187.523 26.8066 187.445 26.8854 187.349 26.8854H185.666Z" fill="#20C05C"/>
<g clip-path="url(#clip2_1377_10334)">
<path fill-rule="evenodd" clip-rule="evenodd" d="M401.431 61.0529C402.233 60.2184 403.349 59.7003 404.582 59.7003C406.222 59.7003 407.653 60.6149 408.415 61.9727C409.097 61.6682 409.836 61.5113 410.582 61.5122C413.54 61.5122 415.938 63.9311 415.938 66.9155C415.938 69.8999 413.54 72.3189 410.582 72.3189C410.221 72.3189 409.868 72.2827 409.527 72.214C408.856 73.4104 407.577 74.2191 406.109 74.2191C405.495 74.2191 404.913 74.0778 404.396 73.8248C403.716 75.4253 402.131 76.547 400.284 76.547C398.36 76.547 396.721 75.3297 396.092 73.6229C395.811 73.6821 395.526 73.7118 395.239 73.7118C392.949 73.712 391.092 71.836 391.092 69.5217C391.09 68.7883 391.281 68.0672 391.644 67.4304C392.008 66.7935 392.533 66.2632 393.165 65.8922C392.903 65.2874 392.768 64.635 392.769 63.9757C392.769 61.3138 394.929 59.1563 397.595 59.1563C398.337 59.1554 399.07 59.3261 399.735 59.6551C400.401 59.9841 400.981 60.4625 401.431 61.0529Z" fill="#00A1E0"/>
<path fill-rule="evenodd" clip-rule="evenodd" d="M394.691 68.1752L394.792 67.8961C394.808 67.8483 394.844 67.864 394.859 67.873C394.887 67.8896 394.907 67.9045 394.943 67.9257C395.239 68.1129 395.514 68.1148 395.599 68.1148C395.821 68.1148 395.958 67.9975 395.958 67.839V67.8309C395.958 67.6586 395.747 67.5934 395.502 67.5184L395.447 67.501C395.111 67.4053 394.752 67.267 394.752 66.8415V66.8328C394.752 66.429 395.077 66.1472 395.544 66.1472L395.595 66.1467C395.869 66.1467 396.133 66.2263 396.325 66.3426C396.343 66.3535 396.36 66.3736 396.35 66.4002L396.247 66.6793C396.228 66.7268 396.179 66.6953 396.179 66.6953C395.978 66.591 395.757 66.5342 395.531 66.5293C395.333 66.5293 395.206 66.6342 395.206 66.7766V66.7855C395.206 66.9516 395.424 67.0225 395.677 67.1048L395.72 67.1184C396.055 67.2244 396.413 67.3711 396.413 67.7746V67.7831C396.413 68.2192 396.096 68.4901 395.587 68.4901C395.336 68.4901 395.097 68.4515 394.844 68.317C394.796 68.2893 394.749 68.2654 394.702 68.2314C394.697 68.2243 394.676 68.2159 394.691 68.1752H394.691ZM402.152 68.1752L402.253 67.8961C402.268 67.8504 402.311 67.8673 402.32 67.873C402.348 67.8901 402.368 67.9045 402.404 67.9257C402.701 68.1129 402.975 68.1148 403.061 68.1148C403.282 68.1148 403.42 67.9975 403.42 67.839V67.8309C403.42 67.6586 403.208 67.5934 402.963 67.5184L402.909 67.501C402.572 67.4053 402.213 67.267 402.213 66.8415V66.8328C402.213 66.429 402.539 66.1472 403.005 66.1472L403.056 66.1467C403.33 66.1467 403.595 66.2263 403.787 66.3426C403.804 66.3535 403.821 66.3736 403.811 66.4002C403.802 66.4249 403.717 66.6532 403.708 66.6793C403.689 66.7268 403.64 66.6953 403.64 66.6953C403.44 66.591 403.218 66.5342 402.993 66.5293C402.795 66.5293 402.668 66.6342 402.668 66.7766V66.7855C402.668 66.9516 402.885 67.0225 403.138 67.1048L403.182 67.1184C403.517 67.2244 403.874 67.3711 403.874 67.7746V67.7831C403.874 68.2192 403.558 68.4901 403.048 68.4901C402.798 68.4901 402.558 68.4515 402.305 68.317C402.257 68.2893 402.21 68.2654 402.163 68.2314C402.158 68.2243 402.137 68.2159 402.152 68.1752ZM407.672 66.863C407.713 67.0032 407.734 67.1573 407.734 67.32C407.734 67.4831 407.713 67.6366 407.672 67.7768C407.633 67.912 407.568 68.0379 407.479 68.1466C407.389 68.2522 407.278 68.3364 407.151 68.3928C407.021 68.4526 406.868 68.4825 406.695 68.4825C406.523 68.4825 406.369 68.4526 406.239 68.3928C406.113 68.3364 406.001 68.2522 405.912 68.1466C405.823 68.0379 405.758 67.9121 405.719 67.7771C405.676 67.6285 405.655 67.4746 405.657 67.32C405.657 67.157 405.677 67.0032 405.719 66.863C405.761 66.7217 405.826 66.5972 405.912 66.4934C406.001 66.3874 406.113 66.3025 406.239 66.2451C406.37 66.1842 406.523 66.1535 406.695 66.1535C406.868 66.1535 407.021 66.1842 407.151 66.2451C407.281 66.3057 407.392 66.3891 407.479 66.4934C407.565 66.5972 407.63 66.7217 407.672 66.863ZM407.247 67.32C407.247 67.0736 407.201 66.8798 407.11 66.744C407.02 66.6092 406.885 66.544 406.695 66.544C406.506 66.544 406.372 66.6092 406.283 66.744C406.194 66.8798 406.149 67.0736 406.149 67.32C406.149 67.5662 406.194 67.7613 406.283 67.8983C406.372 68.0347 406.506 68.1007 406.695 68.1007C406.885 68.1007 407.02 68.0344 407.11 67.8983C407.2 67.7613 407.247 67.5662 407.247 67.32ZM411.166 68.0347L411.27 68.3233C411.283 68.3586 411.253 68.3741 411.253 68.3741C411.092 68.4366 410.868 68.4811 410.65 68.4811C410.281 68.4811 409.999 68.3749 409.81 68.1651C409.623 67.9559 409.527 67.6714 409.527 67.3184C409.527 67.1551 409.551 67.0005 409.597 66.8605C409.643 66.7192 409.712 66.5948 409.804 66.491C409.898 66.3843 410.015 66.2995 410.146 66.2426C410.282 66.182 410.442 66.1516 410.62 66.1516C410.741 66.1516 410.848 66.1589 410.939 66.1725C411.038 66.1877 411.168 66.223 411.223 66.2445C411.233 66.2483 411.261 66.2619 411.25 66.2948C411.21 66.4081 411.182 66.482 411.145 66.5853C411.129 66.6293 411.096 66.6146 411.096 66.6146C410.956 66.5706 410.822 66.5505 410.646 66.5505C410.436 66.5505 410.277 66.6206 410.174 66.7578C410.07 66.8961 410.011 67.0774 410.011 67.3184C410.01 67.5828 410.076 67.7787 410.194 67.8999C410.311 68.0208 410.474 68.082 410.68 68.082C410.764 68.082 410.842 68.0765 410.913 68.0654C410.983 68.0542 411.049 68.0325 411.111 68.0083C411.111 68.0083 411.151 67.9934 411.166 68.0347ZM413.342 66.7828C413.435 67.1073 413.386 67.3874 413.385 67.4029C413.381 67.4399 413.343 67.4404 413.343 67.4404L411.903 67.4393C411.912 67.6581 411.965 67.8129 412.071 67.9181C412.175 68.0211 412.34 68.0871 412.564 68.0874C412.905 68.0882 413.051 68.0195 413.155 67.9811C413.155 67.9811 413.194 67.967 413.209 68.0061L413.303 68.27C413.322 68.3143 413.307 68.3298 413.291 68.3387C413.201 68.3885 412.982 68.4814 412.566 68.4825C412.364 68.4833 412.188 68.4545 412.043 68.3983C411.905 68.3473 411.781 68.2652 411.681 68.1583C411.585 68.0535 411.513 67.9284 411.472 67.7923C411.427 67.6432 411.405 67.4882 411.407 67.3325C411.407 67.1695 411.428 67.0146 411.47 66.873C411.512 66.7304 411.577 66.6046 411.665 66.4989C411.755 66.391 411.868 66.3046 411.997 66.2461C412.129 66.1839 412.292 66.1535 412.472 66.1535C412.626 66.1535 412.767 66.1866 412.884 66.2372C412.974 66.2758 413.065 66.3456 413.158 66.4456C413.217 66.5086 413.306 66.6467 413.342 66.7828ZM411.91 67.0836H412.937C412.927 66.9516 412.901 66.8331 412.842 66.744C412.751 66.6092 412.627 66.535 412.438 66.535C412.249 66.535 412.115 66.6092 412.026 66.744C411.968 66.8331 411.93 66.9467 411.91 67.0836ZM401.808 66.7828C401.901 67.1073 401.853 67.3874 401.851 67.4029C401.848 67.4399 401.81 67.4404 401.81 67.4404L400.369 67.4393C400.379 67.6581 400.431 67.8129 400.537 67.9181C400.641 68.0211 400.806 68.0871 401.03 68.0874C401.372 68.0882 401.518 68.0195 401.621 67.9811C401.621 67.9811 401.661 67.967 401.675 68.0061L401.769 68.27C401.788 68.3143 401.773 68.3298 401.757 68.3387C401.667 68.3885 401.448 68.4814 401.032 68.4825C400.83 68.4833 400.654 68.4545 400.509 68.3983C400.372 68.3472 400.248 68.2651 400.147 68.1583C400.051 68.0534 399.98 67.9283 399.938 67.7923C399.893 67.6432 399.871 67.4882 399.873 67.3325C399.873 67.1695 399.894 67.0146 399.936 66.873C399.975 66.7364 400.041 66.6092 400.131 66.4989C400.221 66.3911 400.335 66.3047 400.463 66.2461C400.595 66.1839 400.759 66.1535 400.938 66.1535C401.08 66.1532 401.22 66.1816 401.351 66.2372C401.441 66.2758 401.532 66.3456 401.624 66.4456C401.683 66.5086 401.772 66.6467 401.808 66.7828ZM400.376 67.0836H401.404C401.393 66.9516 401.367 66.8331 401.308 66.744C401.218 66.6092 401.093 66.535 400.904 66.535C400.715 66.535 400.581 66.6092 400.492 66.744C400.434 66.8331 400.397 66.9467 400.376 67.0836ZM397.836 67.0149C397.836 67.0149 397.95 67.0249 398.074 67.0429V66.982C398.074 66.7899 398.034 66.6994 397.955 66.6388C397.875 66.5774 397.755 66.5456 397.599 66.5456C397.599 66.5456 397.249 66.5412 396.972 66.6918C396.959 66.6994 396.948 66.7037 396.948 66.7037C396.948 66.7037 396.913 66.716 396.901 66.6804L396.799 66.4065C396.783 66.3671 396.812 66.3491 396.812 66.3491C396.941 66.248 397.255 66.1869 397.255 66.1869C397.383 66.1645 397.512 66.1526 397.642 66.1513C397.929 66.1513 398.152 66.2182 398.303 66.3505C398.455 66.4834 398.532 66.6975 398.532 66.9861L398.533 68.3034C398.533 68.3034 398.536 68.3415 398.499 68.3502C398.499 68.3502 398.447 68.3648 398.399 68.376C398.351 68.3871 398.177 68.4224 398.036 68.4463C397.891 68.4706 397.745 68.4828 397.598 68.4828C397.458 68.4828 397.33 68.4697 397.217 68.4439C397.112 68.4218 397.012 68.3786 396.924 68.3167C396.844 68.2584 396.779 68.181 396.736 68.0915C396.692 68.001 396.67 67.8904 396.67 67.7627C396.67 67.6374 396.696 67.5257 396.747 67.4306C396.798 67.3361 396.868 67.2559 396.956 67.1931C397.047 67.1291 397.149 67.0819 397.257 67.0537C397.369 67.0238 397.488 67.0084 397.611 67.0084C397.702 67.0084 397.777 67.0103 397.836 67.0149ZM397.263 68.0268C397.262 68.0265 397.392 68.1287 397.685 68.1108C397.891 68.0983 398.074 68.0591 398.074 68.0591V67.4043C398.074 67.4043 397.89 67.3741 397.683 67.3711C397.39 67.3676 397.265 67.4755 397.266 67.4752C397.179 67.5366 397.137 67.6276 397.137 67.7537C397.137 67.8344 397.151 67.8975 397.18 67.9415C397.199 67.9705 397.207 67.9814 397.263 68.0268ZM409.452 66.2728C409.438 66.3122 409.369 66.5095 409.343 66.5749C409.334 66.5999 409.319 66.6171 409.291 66.6141C409.291 66.6141 409.208 66.595 409.133 66.595C409.081 66.595 409.007 66.6016 408.94 66.6222C408.873 66.6428 408.812 66.6795 408.762 66.729C408.709 66.7798 408.667 66.8513 408.636 66.941C408.604 67.0312 408.588 67.1747 408.588 67.3187V68.3915C408.588 68.3972 408.587 68.4029 408.585 68.4082C408.582 68.4135 408.579 68.4183 408.575 68.4224C408.571 68.4264 408.566 68.4297 408.561 68.4319C408.556 68.4341 408.55 68.4352 408.544 68.4352H408.166C408.161 68.4353 408.155 68.4342 408.149 68.4321C408.144 68.4299 408.139 68.4267 408.135 68.4227C408.131 68.4187 408.128 68.4139 408.125 68.4085C408.123 68.4032 408.122 68.3975 408.122 68.3917V66.2437C408.122 66.2195 408.139 66.2002 408.164 66.2002H408.532C408.557 66.2002 408.574 66.2195 408.574 66.2437V66.4192C408.629 66.3453 408.728 66.2801 408.818 66.2399C408.907 66.1991 409.008 66.1692 409.189 66.1801C409.283 66.1858 409.406 66.2116 409.43 66.2211C409.435 66.2231 409.44 66.226 409.443 66.2296C409.447 66.2333 409.45 66.2376 409.452 66.2425C409.454 66.2473 409.455 66.2524 409.455 66.2576C409.455 66.2628 409.454 66.268 409.452 66.2728ZM405.9 65.2774C405.91 65.2815 405.938 65.2948 405.927 65.3274L405.816 65.6299C405.807 65.6527 405.801 65.6663 405.754 65.6521C405.692 65.6326 405.627 65.6225 405.562 65.6223C405.505 65.6223 405.453 65.6296 405.408 65.6448C405.362 65.6594 405.321 65.685 405.287 65.7193C405.242 65.7624 405.208 65.8149 405.186 65.8731C405.133 66.0252 405.113 66.1875 405.11 66.1978H405.57C405.609 66.1978 405.621 66.2157 405.617 66.2442L405.564 66.5437C405.555 66.5872 405.516 66.5855 405.516 66.5855H405.041L404.717 68.4214C404.689 68.586 404.647 68.7479 404.59 68.905C404.539 69.0379 404.487 69.1349 404.403 69.2276C404.331 69.3105 404.239 69.3742 404.137 69.4129C404.037 69.4496 403.916 69.4683 403.783 69.4683C403.72 69.4683 403.652 69.467 403.572 69.4479C403.528 69.4377 403.484 69.4249 403.441 69.4094C403.423 69.4031 403.408 69.3806 403.419 69.3518C403.429 69.3232 403.514 69.0898 403.525 69.0591C403.54 69.0221 403.577 69.0363 403.577 69.0363C403.603 69.0471 403.621 69.0542 403.655 69.061C403.689 69.0678 403.736 69.0738 403.771 69.0738C403.833 69.0738 403.891 69.0662 403.94 69.0493C404 69.03 404.035 68.995 404.072 68.9482C404.11 68.8991 404.141 68.8325 404.173 68.7431C404.204 68.6526 404.233 68.533 404.258 68.3882L404.581 66.5858H404.263C404.225 66.5858 404.212 66.5679 404.217 66.5391L404.27 66.2396C404.278 66.1961 404.319 66.1978 404.319 66.1978H404.645L404.663 66.1005C404.712 65.8114 404.809 65.5915 404.952 65.4473C405.097 65.3019 405.302 65.2285 405.562 65.2285C405.636 65.2285 405.702 65.2334 405.758 65.2435C405.813 65.2538 405.854 65.2633 405.9 65.2774ZM399.467 68.3915C399.467 68.4159 399.45 68.4352 399.425 68.4352H399.044C399.019 68.4352 399.002 68.4156 399.002 68.3917V65.3176C399.002 65.294 399.019 65.2744 399.043 65.2744H399.425C399.45 65.2744 399.467 65.294 399.467 65.3179V68.3915Z" fill="white"/>
</g>
<circle cx="142.013" cy="44.0128" r="2.01278" fill="#101010"/>
<circle cx="153.839" cy="105.839" r="0.838658" fill="#101010"/>
<circle cx="241.839" cy="106.839" r="0.838658" fill="#101010"/>
<circle cx="306.839" cy="125.839" r="0.838658" fill="#101010"/>
<circle cx="453.775" cy="94.8779" r="0.670926" transform="rotate(42.989 453.775 94.8779)" fill="#101010"/>
<circle cx="422.947" cy="86.9482" r="0.670926" transform="rotate(42.989 422.947 86.9482)" fill="#101010"/>
<circle cx="426.947" cy="113.948" r="0.670926" transform="rotate(42.989 426.947 113.948)" fill="#101010"/>
<circle cx="389.947" cy="107.948" r="0.670926" transform="rotate(42.989 389.947 107.948)" fill="#101010"/>
<circle cx="407.947" cy="132.948" r="0.670926" transform="rotate(42.989 407.947 132.948)" fill="#101010"/>
<circle cx="463.947" cy="123.948" r="0.670926" transform="rotate(42.989 463.947 123.948)" fill="#101010"/>
<ellipse cx="0.664511" cy="0.665355" rx="0.664511" ry="0.665355" transform="matrix(-0.725292 0.688441 0.675229 0.737608 54.9648 35)" fill="#101010"/>
<ellipse cx="0.664511" cy="0.665355" rx="0.664511" ry="0.665355" transform="matrix(-0.725292 0.688441 0.675229 0.737608 7.96484 87)" fill="#101010"/>
<ellipse cx="0.664511" cy="0.665355" rx="0.664511" ry="0.665355" transform="matrix(-0.725292 0.688441 0.675229 0.737608 0.963867 63)" fill="#101010"/>
<ellipse cx="0.664511" cy="0.665355" rx="0.664511" ry="0.665355" transform="matrix(-0.725292 0.688441 0.675229 0.737608 53.9648 96)" fill="#101010"/>
<ellipse cx="0.664511" cy="0.665355" rx="0.664511" ry="0.665355" transform="matrix(-0.725292 0.688441 0.675229 0.737608 82.9648 126)" fill="#101010"/>
<ellipse cx="0.664511" cy="0.665355" rx="0.664511" ry="0.665355" transform="matrix(-0.725292 0.688441 0.675229 0.737608 53.9648 129)" fill="#101010"/>
<ellipse cx="0.664511" cy="0.665355" rx="0.664511" ry="0.665355" transform="matrix(-0.725292 0.688441 0.675229 0.737608 20.9648 122)" fill="#101010"/>
<ellipse cx="0.332256" cy="0.332678" rx="0.332256" ry="0.332678" transform="matrix(-0.725292 0.688441 0.675229 0.737608 37.4805 68)" fill="#101010"/>
<ellipse cx="0.664511" cy="0.665355" rx="0.664511" ry="0.665355" transform="matrix(-0.725292 0.688441 0.675229 0.737608 0.964844 131)" fill="#101010"/>
<ellipse cx="0.996767" cy="0.998033" rx="0.996767" ry="0.998033" transform="matrix(-0.725292 0.688441 0.675229 0.737608 18.4443 24)" fill="#101010"/>
<circle cx="463.013" cy="2.01278" r="2.01278" fill="#101010"/>
<circle cx="377.839" cy="61.8387" r="0.838658" fill="#101010"/>
<circle cx="411.677" cy="30.6773" r="1.67732" fill="#101010"/>
<circle cx="449.174" cy="45.1741" r="1.17412" fill="#101010"/>
<circle cx="388.006" cy="1.00639" r="1.00639" fill="#101010"/>
<path d="M462.04 66H461.013C459.901 66 459 66.9011 459 68.0128V69.3546C459 70.4663 459.901 71.3674 461.013 71.3674H461.411C462.191 71.3674 462.902 70.9159 463.233 70.2089L463.862 68.8671C464.488 67.5324 463.514 66 462.04 66Z" stroke="black" stroke-width="1.34185"/>
<defs>
<filter id="filter0_d_1377_10334" x="101.25" y="6.08333" width="27.5" height="27.5" filterUnits="userSpaceOnUse" color-interpolation-filters="sRGB">
<feFlood flood-opacity="0" result="BackgroundImageFix"/>
<feColorMatrix in="SourceAlpha" type="matrix" values="0 0 0 0 0 0 0 0 0 0 0 0 0 0 0 0 0 0 127 0" result="hardAlpha"/>
<feOffset dy="0.833333"/>
<feGaussianBlur stdDeviation="0.625"/>
<feComposite in2="hardAlpha" operator="out"/>
<feColorMatrix type="matrix" values="0 0 0 0 0.13776 0 0 0 0 0.137186 0 0 0 0 0.137186 0 0 0 0.15 0"/>
<feBlend mode="normal" in2="BackgroundImageFix" result="effect1_dropShadow_1377_10334"/>
<feBlend mode="normal" in="SourceGraphic" in2="effect1_dropShadow_1377_10334" result="shape"/>
</filter>
<filter id="filter1_d_1377_10334" x="334" y="24.6667" width="22" height="22" filterUnits="userSpaceOnUse" color-interpolation-filters="sRGB">
<feFlood flood-opacity="0" result="BackgroundImageFix"/>
<feColorMatrix in="SourceAlpha" type="matrix" values="0 0 0 0 0 0 0 0 0 0 0 0 0 0 0 0 0 0 127 0" result="hardAlpha"/>
<feOffset dy="0.666667"/>
<feGaussianBlur stdDeviation="0.5"/>
<feComposite in2="hardAlpha" operator="out"/>
<feColorMatrix type="matrix" values="0 0 0 0 0.13776 0 0 0 0 0.137186 0 0 0 0 0.137186 0 0 0 0.15 0"/>
<feBlend mode="normal" in2="BackgroundImageFix" result="effect1_dropShadow_1377_10334"/>
<feBlend mode="normal" in="SourceGraphic" in2="effect1_dropShadow_1377_10334" result="shape"/>
</filter>
<filter id="filter2_d_1377_10334" x="341" y="102.667" width="22" height="22" filterUnits="userSpaceOnUse" color-interpolation-filters="sRGB">
<feFlood flood-opacity="0" result="BackgroundImageFix"/>
<feColorMatrix in="SourceAlpha" type="matrix" values="0 0 0 0 0 0 0 0 0 0 0 0 0 0 0 0 0 0 127 0" result="hardAlpha"/>
<feOffset dy="0.666667"/>
<feGaussianBlur stdDeviation="0.5"/>
<feComposite in2="hardAlpha" operator="out"/>
<feColorMatrix type="matrix" values="0 0 0 0 0.13776 0 0 0 0 0.137186 0 0 0 0 0.137186 0 0 0 0.15 0"/>
<feBlend mode="normal" in2="BackgroundImageFix" result="effect1_dropShadow_1377_10334"/>
<feBlend mode="normal" in="SourceGraphic" in2="effect1_dropShadow_1377_10334" result="shape"/>
</filter>
<filter id="filter3_d_1377_10334" x="66" y="61.6667" width="22" height="22" filterUnits="userSpaceOnUse" color-interpolation-filters="sRGB">
<feFlood flood-opacity="0" result="BackgroundImageFix"/>
<feColorMatrix in="SourceAlpha" type="matrix" values="0 0 0 0 0 0 0 0 0 0 0 0 0 0 0 0 0 0 127 0" result="hardAlpha"/>
<feOffset dy="0.666667"/>
<feGaussianBlur stdDeviation="0.5"/>
<feComposite in2="hardAlpha" operator="out"/>
<feColorMatrix type="matrix" values="0 0 0 0 0.13776 0 0 0 0 0.137186 0 0 0 0 0.137186 0 0 0 0.15 0"/>
<feBlend mode="normal" in2="BackgroundImageFix" result="effect1_dropShadow_1377_10334"/>
<feBlend mode="normal" in="SourceGraphic" in2="effect1_dropShadow_1377_10334" result="shape"/>
</filter>
<filter id="filter4_d_1377_10334" x="246.987" y="1.32907" width="34.0256" height="34.0256" filterUnits="userSpaceOnUse" color-interpolation-filters="sRGB">
<feFlood flood-opacity="0" result="BackgroundImageFix"/>
<feColorMatrix in="SourceAlpha" type="matrix" values="0 0 0 0 0 0 0 0 0 0 0 0 0 0 0 0 0 0 127 0" result="hardAlpha"/>
<feOffset dy="1.34185"/>
<feGaussianBlur stdDeviation="1.00639"/>
<feComposite in2="hardAlpha" operator="out"/>
<feColorMatrix type="matrix" values="0 0 0 0 0.13776 0 0 0 0 0.137186 0 0 0 0 0.137186 0 0 0 0.15 0"/>
<feBlend mode="normal" in2="BackgroundImageFix" result="effect1_dropShadow_1377_10334"/>
<feBlend mode="normal" in="SourceGraphic" in2="effect1_dropShadow_1377_10334" result="shape"/>
</filter>
<linearGradient id="paint0_linear_1377_10334" x1="271.734" y1="96.7344" x2="271.734" y2="114.734" gradientUnits="userSpaceOnUse">
<stop stop-color="#0091E6"/>
<stop offset="1" stop-color="#0079BF"/>
</linearGradient>
<clipPath id="clip0_1377_10334">
<rect width="9.83333" height="11.0902" fill="white" transform="translate(347.164 107.498)"/>
</clipPath>
<clipPath id="clip1_1377_10334">
<rect width="11.44" height="8.66667" fill="white" transform="translate(71.3359 67.666)"/>
</clipPath>
<clipPath id="clip2_1377_10334">
<rect width="25" height="17.3908" fill="white" transform="translate(391.098 59.1562)"/>
</clipPath>
</defs>
</svg>
